<svg width="54" height="54" viewBox="0 0 54 54" fill="none" xmlns="http://www.w3.org/2000/svg">
<rect width="54" height="54" rx="27" fill="#222222"/>
<path fill-rule="evenodd" clip-rule="evenodd" d="M27.0283 16.1667C21.0602 16.1667 16.2231 21.0038 16.2231 26.9719C16.2231 31.7451 19.3182 35.7957 23.6126 37.2257C24.1531 37.3232 24.3481 36.9906 24.3481 36.7046C24.3481 36.4478 24.3395 35.7675 24.3362 34.8673C21.33 35.5194 20.6951 33.4178 20.6951 33.4178C20.2055 32.1698 19.4959 31.8372 19.4959 31.8372C18.5155 31.1666 19.5706 31.1818 19.5706 31.1818C20.6561 31.2576 21.2249 32.2954 21.2249 32.2954C22.1891 33.9464 23.7556 33.4698 24.3687 33.1935C24.4673 32.4948 24.749 32.0181 25.0566 31.7483C22.6581 31.4764 20.1361 30.5491 20.1361 26.4075C20.1361 25.2299 20.5576 24.2636 21.2455 23.5096C21.1361 23.2355 20.7623 22.1359 21.3527 20.6496C21.3527 20.6496 22.2595 20.3582 24.3232 21.7557C25.2046 21.5159 26.1138 21.3935 27.0272 21.3917C27.9407 21.3931 28.8499 21.5155 29.7312 21.7557C31.7961 20.3571 32.7017 20.6496 32.7017 20.6496C33.2921 22.1359 32.9216 23.2355 32.809 23.5096C33.5023 24.2636 33.9183 25.2288 33.9183 26.4075C33.9183 30.5599 31.3941 31.4721 28.987 31.7397C29.3716 32.0733 29.7182 32.732 29.7182 33.7395C29.7182 35.1847 29.7052 36.3503 29.7052 36.7046C29.7052 36.9938 29.8981 37.3297 30.4495 37.2235C34.7416 35.7913 37.8335 31.744 37.8335 26.9719C37.8335 21.0038 32.9964 16.1667 27.0283 16.1667Z" fill="#D3E97A"/>
</svg>
