<svg width="28" height="27" viewBox="0 0 28 27" fill="none" xmlns="http://www.w3.org/2000/svg">
<path fill-rule="evenodd" clip-rule="evenodd" d="M14.0345 0.666687C6.68917 0.666687 0.73584 6.62002 0.73584 13.9654C0.73584 19.84 4.54517 24.8254 9.83051 26.5854C10.4958 26.7054 10.7358 26.296 10.7358 25.944C10.7358 25.628 10.7252 24.7907 10.7212 23.6827C7.02117 24.4854 6.23984 21.8987 6.23984 21.8987C5.63717 20.3627 4.76384 19.9534 4.76384 19.9534C3.55717 19.128 4.85584 19.1467 4.85584 19.1467C6.19184 19.24 6.89184 20.5174 6.89184 20.5174C8.07851 22.5494 10.0065 21.9627 10.7612 21.6227C10.8825 20.7627 11.2292 20.176 11.6078 19.844C8.65584 19.5094 5.55184 18.368 5.55184 13.2707C5.55184 11.8214 6.07051 10.632 6.91717 9.70402C6.78251 9.36669 6.32251 8.01335 7.04917 6.18402C7.04917 6.18402 8.16517 5.82535 10.7052 7.54535C11.79 7.25025 12.909 7.09961 14.0332 7.09735C15.1574 7.09918 16.2765 7.24982 17.3612 7.54535C19.9025 5.82402 21.0172 6.18402 21.0172 6.18402C21.7438 8.01335 21.2878 9.36669 21.1492 9.70402C22.0025 10.632 22.5145 11.82 22.5145 13.2707C22.5145 18.3814 19.4078 19.504 16.4452 19.8334C16.9185 20.244 17.3452 21.0547 17.3452 22.2947C17.3452 24.0734 17.3292 25.508 17.3292 25.944C17.3292 26.3 17.5665 26.7134 18.2452 26.5827C23.5278 24.82 27.3332 19.8387 27.3332 13.9654C27.3332 6.62002 21.3798 0.666687 14.0345 0.666687Z" fill="#D3E97A"/>
</svg>
